<svg xmlns="http://www.w3.org/2000/svg" width="2000" height="2000" viewBox="0 0 2000 2000" version="1.1"><path d="M 0 1000 L 0 2000 128.756 2000 L 257.511 2000 629.921 1242.250 C 907.327 677.807, 1002.284 483.717, 1002.147 481.429 C 1002.045 479.741, 995.670 465.805, 987.981 450.462 C 980.291 435.118, 974 422.112, 974 421.560 C 974 421.007, 961.453 395.342, 946.118 364.527 C 930.784 333.712, 917.670 307.015, 916.976 305.200 C 916.283 303.385, 903.180 276.843, 887.858 246.216 C 872.536 215.590, 860 190.087, 860 189.543 C 860 189, 847.453 163.342, 832.118 132.527 C 816.784 101.712, 803.659 74.989, 802.952 73.142 C 802.246 71.295, 794.122 54.716, 784.900 36.301 C 775.678 17.885, 768.376 2.184, 768.673 1.409 C 769.138 0.199, 715.019 0, 384.607 0 L 0 0 0 1000 M 960.488 1188.250 C 936.910 1236.237, 902.126 1307, 883.191 1345.500 C 864.255 1384, 843.471 1426.300, 837.003 1439.500 C 820.867 1472.430, 802.654 1509.502, 751.517 1613.500 C 710.465 1696.986, 672.226 1774.773, 636.238 1848 C 627.724 1865.325, 615.242 1890.750, 608.500 1904.500 C 601.759 1918.250, 588.538 1945.197, 579.121 1964.381 C 569.705 1983.566, 562 1999.429, 562 1999.631 C 562 1999.834, 760.900 2000, 1004 2000 C 1247.100 2000, 1446 1999.807, 1446 1999.572 C 1446 1999.337, 1425.692 1957.824, 1400.870 1907.322 C 1376.049 1856.820, 1349.785 1803.350, 1342.506 1788.500 C 1325.289 1753.373, 1283.312 1667.975, 1227.487 1554.500 C 1202.864 1504.450, 1177.435 1452.700, 1170.978 1439.500 C 1164.521 1426.300, 1143.745 1384, 1124.809 1345.500 C 1105.874 1307, 1071.090 1236.237, 1047.512 1188.250 C 1023.934 1140.263, 1004.353 1101, 1004 1101 C 1003.647 1101, 984.066 1140.263, 960.488 1188.250" stroke="none" fill="#ba260d" fill-rule="evenodd"/><path d="M 768.679 1.393 C 768.082 2.950, 803.369 74.298, 804.284 73.383 C 804.603 73.064, 804.658 73.634, 804.405 74.651 C 803.908 76.651, 859.292 188.375, 860.287 187.380 C 860.605 187.062, 860.658 187.634, 860.405 188.651 C 859.869 190.808, 917.333 306.333, 918.408 305.259 C 918.792 304.875, 918.805 305.343, 918.438 306.300 C 917.577 308.545, 970.754 415.270, 972.268 414.334 C 972.875 413.959, 973.009 414.176, 972.590 414.854 C 971.688 416.314, 972.850 420.211, 973.979 419.513 C 974.438 419.229, 974.615 419.785, 974.372 420.749 C 974.128 421.715, 980.223 435.041, 987.965 450.468 C 995.684 465.850, 1002 479.489, 1002 480.777 C 1002 482.208, 1002.423 482.857, 1003.087 482.446 C 1003.685 482.077, 1003.952 480.925, 1003.681 479.887 C 1003.409 478.849, 1003.523 478, 1003.932 478 C 1004.342 478, 1006.294 474.512, 1008.270 470.250 C 1010.245 465.988, 1023.143 439.615, 1036.931 411.645 C 1050.719 383.675, 1062 360.680, 1062 360.546 C 1062 360.412, 1073.971 336.047, 1088.603 306.401 C 1103.234 276.755, 1118.263 246.200, 1122.001 238.500 C 1125.738 230.800, 1138.118 205.600, 1149.513 182.500 C 1160.907 159.400, 1174.625 131.500, 1179.997 120.500 C 1185.368 109.500, 1197.966 83.850, 1207.992 63.500 C 1218.018 43.150, 1228.691 21.325, 1231.710 15 C 1234.730 8.675, 1237.621 2.712, 1238.135 1.750 C 1239.025 0.086, 1227.573 0, 1004.142 0 C 804.242 0, 769.134 0.208, 768.679 1.393" stroke="none" fill="#a4270c" fill-rule="evenodd"/><path d="M 1231.586 15.250 C 1227.543 23.637, 1216.704 45.800, 1207.499 64.500 C 1198.294 83.200, 1185.918 108.400, 1179.997 120.500 C 1174.076 132.600, 1160.579 160.050, 1150.004 181.500 C 1139.429 202.950, 1126.603 229.050, 1121.503 239.500 C 1116.402 249.950, 1102.898 277.400, 1091.494 300.500 C 1080.089 323.600, 1067.266 349.700, 1062.999 358.500 C 1058.731 367.300, 1046.583 392.050, 1036.003 413.500 C 1025.423 434.950, 1014.074 458.125, 1010.784 465 C 1007.493 471.875, 1004.387 477.757, 1003.881 478.071 C 1003.375 478.385, 1009.495 491.634, 1017.481 507.513 C 1025.466 523.392, 1032 536.725, 1032 537.142 C 1032 537.558, 1045.050 564.161, 1061 596.260 C 1076.950 628.359, 1090 654.914, 1090 655.271 C 1090 655.628, 1103.050 682.181, 1119 714.277 C 1134.950 746.374, 1148 772.922, 1148 773.273 C 1148 773.623, 1160.600 799.272, 1176 830.270 C 1191.400 861.267, 1204 886.915, 1204 887.264 C 1204 887.613, 1217.050 914.161, 1233 946.260 C 1248.950 978.359, 1262 1004.909, 1262 1005.260 C 1262 1005.611, 1275.050 1032.161, 1291 1064.260 C 1306.950 1096.359, 1320 1122.907, 1320 1123.256 C 1320 1123.605, 1332.600 1149.253, 1348 1180.252 C 1363.400 1211.251, 1376 1236.903, 1376 1237.256 C 1376 1237.610, 1389.050 1264.161, 1405 1296.260 C 1420.950 1328.359, 1434 1354.909, 1434 1355.260 C 1434 1355.611, 1447.050 1382.161, 1463 1414.260 C 1478.950 1446.359, 1492 1472.914, 1492 1473.271 C 1492 1473.628, 1505.050 1500.181, 1521 1532.277 C 1536.950 1564.374, 1550 1590.922, 1550 1591.273 C 1550 1591.623, 1562.600 1617.272, 1578 1648.270 C 1593.400 1679.267, 1606 1704.915, 1606 1705.264 C 1606 1705.613, 1619.050 1732.161, 1635 1764.260 C 1650.950 1796.359, 1664 1822.909, 1664 1823.260 C 1664 1823.611, 1677.074 1850.359, 1693.054 1882.699 C 1709.034 1915.040, 1728.042 1953.650, 1735.294 1968.500 C 1742.547 1983.350, 1749.351 1996.513, 1750.415 1997.750 L 1752.349 2000 1876.174 2000 L 2000 2000 2000 1000 L 2000 0 1619.468 0 L 1238.935 0 1231.586 15.250" stroke="none" fill="#8b1f0a" fill-rule="evenodd"/><path d="M 631.133 1239.724 C 426.331 1656.471, 258.545 1998.021, 258.276 1998.723 C 257.880 1999.755, 286.887 2000, 409.727 2000 L 561.667 2000 573.277 1976.250 C 579.662 1963.188, 594.415 1933.150, 606.063 1909.500 C 617.710 1885.850, 632.075 1856.600, 637.985 1844.500 C 643.895 1832.400, 662.233 1795.050, 678.736 1761.500 C 760.011 1596.269, 817.076 1480.168, 837.003 1439.500 C 843.471 1426.300, 864.255 1384, 883.191 1345.500 C 902.126 1307, 936.910 1236.237, 960.488 1188.250 C 984.066 1140.263, 1003.647 1101, 1004 1101 C 1004.353 1101, 1023.934 1140.263, 1047.512 1188.250 C 1071.090 1236.237, 1105.875 1307, 1124.812 1345.500 C 1143.749 1384, 1164.302 1425.850, 1170.486 1438.500 C 1176.670 1451.150, 1202.321 1503.350, 1227.487 1554.500 C 1252.654 1605.650, 1285.064 1671.575, 1299.510 1701 C 1313.956 1730.425, 1335.183 1773.625, 1346.681 1797 C 1358.179 1820.375, 1385.326 1875.612, 1407.008 1919.750 L 1446.431 2000 1598.299 2000 C 1696.178 2000, 1750.048 1999.654, 1749.833 1999.028 C 1748.867 1996.209, 1004.422 482.016, 1004 482.009 C 1003.725 482.005, 835.935 822.977, 631.133 1239.724" stroke="none" fill="#fbfbfb" fill-rule="evenodd"/></svg>