<svg xmlns="http://www.w3.org/2000/svg" width="2000" height="2000" viewBox="0 0 2000 2000" version="1.1"><path d="M 631.133 1239.724 C 426.331 1656.471, 258.545 1998.021, 258.276 1998.723 C 257.880 1999.755, 286.888 2000, 409.734 2000 L 561.681 2000 575.729 1971.250 C 583.455 1955.438, 629.371 1861.950, 677.763 1763.500 C 798.294 1518.290, 819.007 1476.146, 917.492 1275.750 C 964.727 1179.638, 1003.656 1101, 1004.002 1101 C 1004.349 1101, 1036.755 1166.362, 1076.017 1246.250 C 1115.278 1326.138, 1163.116 1423.450, 1182.323 1462.500 C 1201.530 1501.550, 1222.301 1543.850, 1228.482 1556.500 C 1234.662 1569.150, 1280.104 1661.625, 1329.463 1762 C 1378.823 1862.375, 1425.308 1956.987, 1432.763 1972.250 L 1446.317 2000 1598.242 2000 C 1696.158 2000, 1750.048 1999.654, 1749.833 1999.028 C 1748.867 1996.209, 1004.422 482.016, 1004 482.009 C 1003.725 482.005, 835.935 822.977, 631.133 1239.724" stroke="none" fill="#ffffff" fill-rule="evenodd"/><path d="M 1234.074 10.250 C 1231.418 15.888, 1222.162 34.900, 1213.504 52.500 C 1204.846 70.100, 1191.798 96.650, 1184.507 111.500 C 1177.216 126.350, 1163.943 153.350, 1155.012 171.500 C 1146.080 189.650, 1133.475 215.300, 1127.001 228.500 C 1120.526 241.700, 1107.472 268.250, 1097.991 287.500 C 1088.511 306.750, 1075.688 332.850, 1069.496 345.500 C 1063.304 358.150, 1049.131 386.950, 1038.001 409.500 C 1000.752 484.964, 1002.880 479.804, 1006.585 485.686 C 1009.871 490.903, 1012 495.166, 1012 496.530 C 1012 497.339, 1012.450 498, 1013 498 C 1013.550 498, 1014 498.900, 1014 500 C 1014 501.100, 1014.450 502, 1015 502 C 1015.550 502, 1016 502.900, 1016 504 C 1016 505.100, 1016.450 506, 1017 506 C 1017.550 506, 1018 506.900, 1018 508 C 1018 509.100, 1018.450 510, 1019 510 C 1019.550 510, 1020 510.900, 1020 512 C 1020 513.100, 1020.450 514, 1021 514 C 1021.550 514, 1022 514.900, 1022 516 C 1022 517.100, 1022.450 518, 1023 518 C 1023.550 518, 1024 518.900, 1024 520 C 1024 521.100, 1024.450 522, 1025 522 C 1025.550 522, 1026 522.900, 1026 524 C 1026 525.100, 1026.450 526, 1027 526 C 1027.550 526, 1028 526.900, 1028 528 C 1028 529.100, 1028.450 530, 1029 530 C 1029.550 530, 1030 530.900, 1030 532 C 1030 533.100, 1030.450 534, 1031 534 C 1031.550 534, 1032 534.776, 1032 535.724 C 1032 536.671, 1044.997 563.559, 1060.882 595.474 C 1076.767 627.388, 1090.330 654.985, 1091.024 656.800 C 1091.717 658.615, 1104.820 685.157, 1120.142 715.784 C 1135.464 746.410, 1148.002 771.925, 1148.004 772.484 C 1148.007 773.043, 1160.606 798.700, 1176.004 829.500 C 1191.401 860.300, 1204 885.921, 1204 886.436 C 1204 886.951, 1215.700 910.812, 1230 939.462 C 1244.300 968.112, 1256 992.103, 1256 992.776 C 1256 993.449, 1256.450 994, 1257 994 C 1257.550 994, 1258 994.900, 1258 996 C 1258 997.100, 1258.450 998, 1259 998 C 1259.550 998, 1260 998.900, 1260 1000 C 1260 1001.100, 1260.450 1002, 1261 1002 C 1261.550 1002, 1262 1002.759, 1262 1003.686 C 1262 1004.613, 1273.700 1028.812, 1288 1057.462 C 1302.300 1086.112, 1314 1110.103, 1314 1110.776 C 1314 1111.449, 1314.450 1112, 1315 1112 C 1315.550 1112, 1316 1112.900, 1316 1114 C 1316 1115.100, 1316.450 1116, 1317 1116 C 1317.550 1116, 1318 1116.900, 1318 1118 C 1318 1119.100, 1318.450 1120, 1319 1120 C 1319.550 1120, 1320.002 1120.787, 1320.005 1121.750 C 1320.007 1122.713, 1331.707 1146.900, 1346.004 1175.500 C 1360.302 1204.100, 1372 1228.063, 1372 1228.750 C 1372 1229.438, 1372.450 1230, 1373 1230 C 1373.550 1230, 1374 1230.900, 1374 1232 C 1374 1233.100, 1374.450 1234, 1375 1234 C 1375.550 1234, 1376.002 1234.787, 1376.005 1235.750 C 1376.007 1236.713, 1387.707 1260.900, 1402.004 1289.500 C 1416.302 1318.100, 1428 1342.063, 1428 1342.750 C 1428 1343.438, 1428.450 1344, 1429 1344 C 1429.550 1344, 1430 1344.900, 1430 1346 C 1430 1347.100, 1430.450 1348, 1431 1348 C 1431.550 1348, 1432 1348.900, 1432 1350 C 1432 1351.100, 1432.450 1352, 1433 1352 C 1433.550 1352, 1434 1352.759, 1434 1353.686 C 1434 1354.613, 1445.700 1378.812, 1460 1407.462 C 1474.300 1436.112, 1486 1460.103, 1486 1460.776 C 1486 1461.449, 1486.450 1462, 1487 1462 C 1487.550 1462, 1488 1462.900, 1488 1464 C 1488 1465.100, 1488.450 1466, 1489 1466 C 1489.550 1466, 1490 1466.900, 1490 1468 C 1490 1469.100, 1490.450 1470, 1491 1470 C 1491.550 1470, 1492.002 1470.787, 1492.005 1471.750 C 1492.007 1472.713, 1503.707 1496.900, 1518.004 1525.500 C 1532.302 1554.100, 1544 1578.063, 1544 1578.750 C 1544 1579.438, 1544.450 1580, 1545 1580 C 1545.550 1580, 1546 1580.900, 1546 1582 C 1546 1583.100, 1546.450 1584, 1547 1584 C 1547.550 1584, 1548 1584.900, 1548 1586 C 1548 1587.100, 1548.450 1588, 1549 1588 C 1549.550 1588, 1550.002 1588.787, 1550.005 1589.750 C 1550.007 1590.713, 1561.707 1614.900, 1576.004 1643.500 C 1590.302 1672.100, 1602 1696.063, 1602 1696.750 C 1602 1697.438, 1602.450 1698, 1603 1698 C 1603.550 1698, 1604 1698.900, 1604 1700 C 1604 1701.100, 1604.450 1702, 1605 1702 C 1605.550 1702, 1606 1702.759, 1606 1703.686 C 1606 1704.613, 1617.700 1728.812, 1632 1757.462 C 1646.300 1786.112, 1658 1810.103, 1658 1810.776 C 1658 1811.449, 1658.450 1812, 1659 1812 C 1659.550 1812, 1660 1812.900, 1660 1814 C 1660 1815.100, 1660.450 1816, 1661 1816 C 1661.550 1816, 1662 1816.900, 1662 1818 C 1662 1819.100, 1662.450 1820, 1663 1820 C 1663.550 1820, 1664.002 1820.787, 1664.005 1821.750 C 1664.007 1822.713, 1675.707 1846.900, 1690.004 1875.500 C 1704.302 1904.100, 1716 1928.063, 1716 1928.750 C 1716 1929.438, 1716.450 1930, 1717 1930 C 1717.550 1930, 1718 1930.900, 1718 1932 C 1718 1933.100, 1718.450 1934, 1719 1934 C 1719.550 1934, 1720 1934.900, 1720 1936 C 1720 1937.100, 1720.450 1938, 1721 1938 C 1721.550 1938, 1722 1938.755, 1722 1939.679 C 1722 1941.793, 1748.461 1995.073, 1750.918 1997.906 C 1752.735 2000, 1752.735 2000, 1876.367 2000 L 2000 2000 2000 1000 L 2000 0 1619.452 -0 L 1238.903 -0 1234.074 10.250" stroke="none" fill="#0085a9" fill-rule="evenodd"/><path d="M 768.674 1.408 C 768.376 2.183, 776.203 18.934, 786.067 38.633 C 795.930 58.332, 804 74.918, 804 75.491 C 804 76.064, 816.600 101.718, 832 132.500 C 847.400 163.282, 860 188.932, 860 189.499 C 860 190.067, 873.050 216.617, 889 248.500 C 904.950 280.383, 918 306.933, 918 307.501 C 918 308.069, 930.085 332.689, 944.857 362.213 C 959.628 391.738, 972.279 417.380, 972.969 419.197 C 975.055 424.680, 1000.399 475.475, 1001.229 475.833 C 1001.653 476.017, 1002 477.690, 1002 479.552 C 1002 482.084, 1002.362 482.798, 1003.437 482.386 C 1004.227 482.083, 1004.656 481.266, 1004.389 480.571 C 1003.844 479.151, 1008.945 468.365, 1038.001 409.500 C 1049.131 386.950, 1063.304 358.150, 1069.496 345.500 C 1075.688 332.850, 1088.511 306.750, 1097.991 287.500 C 1107.472 268.250, 1120.526 241.700, 1127.001 228.500 C 1133.475 215.300, 1146.080 189.650, 1155.012 171.500 C 1163.943 153.350, 1177.216 126.350, 1184.507 111.500 C 1191.798 96.650, 1204.846 70.100, 1213.504 52.500 C 1222.162 34.900, 1231.418 15.888, 1234.074 10.250 L 1238.903 0 1004.059 0 C 803.042 0, 769.136 0.203, 768.674 1.408" stroke="none" fill="#01a0c4" fill-rule="evenodd"/><path d="M 0 1000 L 0 2000 128.756 2000 L 257.511 2000 629.918 1242.250 C 955.168 580.451, 1002.297 483.997, 1002.108 480.526 C 1001.990 478.340, 1001.564 476.315, 1001.162 476.026 C 1000.297 475.403, 974.794 423.996, 972.969 419.197 C 972.279 417.380, 959.628 391.738, 944.857 362.213 C 930.085 332.689, 918 308.069, 918 307.501 C 918 306.933, 904.950 280.383, 889 248.500 C 873.050 216.617, 860 190.067, 860 189.499 C 860 188.932, 847.400 163.282, 832 132.500 C 816.600 101.718, 804 76.064, 804 75.491 C 804 74.918, 795.930 58.332, 786.067 38.633 C 776.203 18.934, 768.376 2.183, 768.674 1.408 C 769.138 0.199, 714.913 0, 384.607 0 L 0 0 0 1000 M 917.493 1275.750 C 870.258 1371.862, 816.350 1481.550, 797.696 1519.500 C 571.544 1979.599, 562 1999.042, 562 1999.637 C 562 1999.837, 760.900 2000, 1004 2000 C 1247.100 2000, 1446 1999.842, 1446 1999.648 C 1446 1999.114, 1423.405 1953.039, 1327.990 1759 C 1279.984 1661.375, 1235.427 1570.700, 1228.973 1557.500 C 1222.520 1544.300, 1201.526 1501.550, 1182.321 1462.500 C 1163.115 1423.450, 1115.278 1326.138, 1076.017 1246.250 C 1036.755 1166.362, 1004.349 1101, 1004.002 1101 C 1003.656 1101, 964.727 1179.638, 917.493 1275.750" stroke="none" fill="#00c5de" fill-rule="evenodd"/><path d="M 0 1000 L 0 2000 128.756 2000 L 257.511 2000 629.918 1242.250 C 955.168 580.451, 1002.297 483.997, 1002.108 480.526 C 1001.990 478.340, 1001.564 476.315, 1001.162 476.026 C 1000.297 475.403, 974.794 423.996, 972.969 419.197 C 972.279 417.380, 959.628 391.738, 944.857 362.213 C 930.085 332.689, 918 308.069, 918 307.501 C 918 306.933, 904.950 280.383, 889 248.500 C 873.050 216.617, 860 190.067, 860 189.499 C 860 188.932, 847.400 163.282, 832 132.500 C 816.600 101.718, 804 76.064, 804 75.491 C 804 74.918, 795.930 58.332, 786.067 38.633 C 776.203 18.934, 768.376 2.183, 768.674 1.408 C 769.138 0.199, 714.913 0, 384.607 0 L 0 0 0 1000 M 917.493 1275.750 C 870.258 1371.862, 816.350 1481.550, 797.696 1519.500 C 571.544 1979.599, 562 1999.042, 562 1999.637 C 562 1999.837, 760.900 2000, 1004 2000 C 1247.100 2000, 1446 1999.842, 1446 1999.648 C 1446 1999.114, 1423.405 1953.039, 1327.990 1759 C 1279.984 1661.375, 1235.427 1570.700, 1228.973 1557.500 C 1222.520 1544.300, 1201.526 1501.550, 1182.321 1462.500 C 1163.115 1423.450, 1115.278 1326.138, 1076.017 1246.250 C 1036.755 1166.362, 1004.349 1101, 1004.002 1101 C 1003.656 1101, 964.727 1179.638, 917.493 1275.750" stroke="none" fill="#00c5de" fill-rule="evenodd"/></svg>